<?xml version="1.0" standalone="no"?>
<svg version="1.1" id="downloadSvg" xmlns="http://www.w3.org/2000/svg" xmlns:xlink="http://www.w3.org/1999/xlink" x="0px" y="0px" viewBox="0 0 1200 1200" enable-background="new 0 0 1200 1200" xml:space="preserve" height="512" width="512">
<path d="M123.693,324.994v550L599.993,1150l476.313-275.006v-550L599.993,50L123.693,324.994z M1018.357,335.91L839.223,437.133&#10;&#9;L599.993,298.998L360.765,437.133L181.635,335.91L599.993,94.378L1018.357,335.91z M639.052,594.381l398.825-225.364v450.74&#10;&#9;L639.052,594.381z M560.948,594.381L162.109,819.745v-450.74L560.948,594.381z M171.812,858.413l191.05-107.964l237.152,136.918&#10;&#9;l237.117-136.906l191.058,107.952l-428.195,247.209L171.812,858.413z" style="fill: rgb(51, 51, 51);"/>
</svg>